<svg width="255" height="122" viewBox="0 0 255 122" fill="none" xmlns="http://www.w3.org/2000/svg">
<path d="M95.49 72V50.1H101.61C103.05 50.1 104.3 50.38 105.36 50.94C106.42 51.48 107.24 52.25 107.82 53.25C108.42 54.25 108.72 55.43 108.72 56.79V65.28C108.72 66.62 108.42 67.8 107.82 68.82C107.24 69.84 106.42 70.63 105.36 71.19C104.3 71.73 103.05 72 101.61 72H95.49ZM98.73 69.06H101.61C102.81 69.06 103.75 68.73 104.43 68.07C105.13 67.39 105.48 66.46 105.48 65.28V56.79C105.48 55.63 105.13 54.72 104.43 54.06C103.75 53.38 102.81 53.04 101.61 53.04H98.73V69.06ZM118.338 72.3C116.618 72.3 115.258 71.86 114.258 70.98C113.278 70.08 112.788 68.86 112.788 67.32C112.788 65.76 113.308 64.54 114.348 63.66C115.408 62.76 116.858 62.31 118.698 62.31H123.288V60.78C123.288 59.88 123.008 59.18 122.448 58.68C121.888 58.18 121.098 57.93 120.078 57.93C119.178 57.93 118.428 58.13 117.828 58.53C117.228 58.91 116.878 59.42 116.778 60.06H113.598C113.778 58.58 114.458 57.4 115.638 56.52C116.838 55.64 118.348 55.2 120.168 55.2C122.128 55.2 123.678 55.7 124.818 56.7C125.958 57.68 126.528 59.02 126.528 60.72V72H123.378V68.97H122.838L123.378 68.37C123.378 69.57 122.918 70.53 121.998 71.25C121.078 71.95 119.858 72.3 118.338 72.3ZM119.298 69.81C120.458 69.81 121.408 69.52 122.148 68.94C122.908 68.34 123.288 67.58 123.288 66.66V64.5H118.758C117.918 64.5 117.248 64.73 116.748 65.19C116.268 65.65 116.028 66.28 116.028 67.08C116.028 67.92 116.318 68.59 116.898 69.09C117.478 69.57 118.278 69.81 119.298 69.81ZM139.777 72C138.277 72 137.107 71.59 136.267 70.77C135.427 69.95 135.007 68.81 135.007 67.35V58.44H130.447V55.5H135.007V50.85H138.247V55.5H144.697V58.44H138.247V67.35C138.247 68.49 138.797 69.06 139.897 69.06H144.397V72H139.777ZM154.315 72.3C152.595 72.3 151.235 71.86 150.235 70.98C149.255 70.08 148.765 68.86 148.765 67.32C148.765 65.76 149.285 64.54 150.325 63.66C151.385 62.76 152.835 62.31 154.675 62.31H159.265V60.78C159.265 59.88 158.985 59.18 158.425 58.68C157.865 58.18 157.075 57.93 156.055 57.93C155.155 57.93 154.405 58.13 153.805 58.53C153.205 58.91 152.855 59.42 152.755 60.06H149.575C149.755 58.58 150.435 57.4 151.615 56.52C152.815 55.64 154.325 55.2 156.145 55.2C158.105 55.2 159.655 55.7 160.795 56.7C161.935 57.68 162.505 59.02 162.505 60.72V72H159.355V68.97H158.815L159.355 68.37C159.355 69.57 158.895 70.53 157.975 71.25C157.055 71.95 155.835 72.3 154.315 72.3ZM155.275 69.81C156.435 69.81 157.385 69.52 158.125 68.94C158.885 68.34 159.265 67.58 159.265 66.66V64.5H154.735C153.895 64.5 153.225 64.73 152.725 65.19C152.245 65.65 152.005 66.28 152.005 67.08C152.005 67.92 152.295 68.59 152.875 69.09C153.455 69.57 154.255 69.81 155.275 69.81ZM173.383 72.27C172.203 72.27 171.163 72.08 170.263 71.7C169.383 71.32 168.683 70.8 168.163 70.14C167.663 69.46 167.373 68.66 167.293 67.74H170.533C170.613 68.28 170.903 68.72 171.403 69.06C171.903 69.38 172.563 69.54 173.383 69.54H174.673C175.653 69.54 176.393 69.34 176.893 68.94C177.393 68.54 177.643 68.01 177.643 67.35C177.643 66.71 177.413 66.21 176.953 65.85C176.513 65.47 175.853 65.22 174.973 65.1L172.843 64.77C171.083 64.49 169.783 63.99 168.943 63.27C168.123 62.53 167.713 61.44 167.713 60C167.713 58.48 168.203 57.31 169.183 56.49C170.183 55.65 171.653 55.23 173.593 55.23H174.733C176.453 55.23 177.823 55.63 178.843 56.43C179.883 57.21 180.473 58.26 180.613 59.58H177.373C177.293 59.1 177.023 58.71 176.563 58.41C176.123 58.11 175.513 57.96 174.733 57.96H173.593C172.653 57.96 171.963 58.14 171.523 58.5C171.103 58.84 170.893 59.35 170.893 60.03C170.893 60.63 171.083 61.08 171.463 61.38C171.843 61.68 172.433 61.89 173.233 62.01L175.423 62.37C177.283 62.63 178.643 63.15 179.503 63.93C180.383 64.69 180.823 65.8 180.823 67.26C180.823 68.84 180.303 70.07 179.263 70.95C178.243 71.83 176.713 72.27 174.673 72.27H173.383ZM192.061 72.3C190.701 72.3 189.501 72.05 188.461 71.55C187.441 71.03 186.651 70.29 186.091 69.33C185.551 68.35 185.281 67.21 185.281 65.91V61.59C185.281 60.27 185.551 59.13 186.091 58.17C186.651 57.21 187.441 56.48 188.461 55.98C189.501 55.46 190.701 55.2 192.061 55.2C194.041 55.2 195.631 55.72 196.831 56.76C198.031 57.8 198.661 59.22 198.721 61.02H195.481C195.421 60.08 195.091 59.35 194.491 58.83C193.891 58.31 193.081 58.05 192.061 58.05C190.961 58.05 190.091 58.36 189.451 58.98C188.811 59.58 188.491 60.44 188.491 61.56V65.91C188.491 67.03 188.811 67.9 189.451 68.52C190.091 69.14 190.961 69.45 192.061 69.45C193.081 69.45 193.891 69.19 194.491 68.67C195.091 68.15 195.421 67.42 195.481 66.48H198.721C198.661 68.28 198.031 69.7 196.831 70.74C195.631 71.78 194.041 72.3 192.061 72.3ZM209.93 72.3C208.59 72.3 207.41 72.04 206.39 71.52C205.39 70.98 204.62 70.23 204.08 69.27C203.54 68.31 203.27 67.19 203.27 65.91V61.59C203.27 60.29 203.54 59.17 204.08 58.23C204.62 57.27 205.39 56.53 206.39 56.01C207.41 55.47 208.59 55.2 209.93 55.2C211.29 55.2 212.47 55.47 213.47 56.01C214.47 56.53 215.24 57.27 215.78 58.23C216.32 59.17 216.59 60.29 216.59 61.59V64.53H206.39V65.91C206.39 67.13 206.69 68.06 207.29 68.7C207.91 69.34 208.8 69.66 209.96 69.66C210.9 69.66 211.66 69.5 212.24 69.18C212.82 68.84 213.18 68.35 213.32 67.71H216.53C216.29 69.11 215.57 70.23 214.37 71.07C213.17 71.89 211.69 72.3 209.93 72.3ZM213.47 62.58V61.56C213.47 60.36 213.17 59.43 212.57 58.77C211.97 58.11 211.09 57.78 209.93 57.78C208.79 57.78 207.91 58.11 207.29 58.77C206.69 59.43 206.39 60.37 206.39 61.59V62.34L213.71 62.31L213.47 62.58ZM221.438 72V55.5H224.648V58.65H225.428L224.648 59.4C224.648 58.08 225.038 57.05 225.818 56.31C226.598 55.57 227.678 55.2 229.058 55.2C230.698 55.2 232.008 55.73 232.988 56.79C233.968 57.83 234.458 59.24 234.458 61.02V72H231.218V61.38C231.218 60.3 230.928 59.47 230.348 58.89C229.768 58.31 228.978 58.02 227.978 58.02C226.958 58.02 226.148 58.33 225.548 58.95C224.968 59.55 224.678 60.43 224.678 61.59V72H221.438ZM245.906 72.3C244.566 72.3 243.386 72.04 242.366 71.52C241.366 70.98 240.596 70.23 240.056 69.27C239.516 68.31 239.246 67.19 239.246 65.91V61.59C239.246 60.29 239.516 59.17 240.056 58.23C240.596 57.27 241.366 56.53 242.366 56.01C243.386 55.47 244.566 55.2 245.906 55.2C247.266 55.2 248.446 55.47 249.446 56.01C250.446 56.53 251.216 57.27 251.756 58.23C252.296 59.17 252.566 60.29 252.566 61.59V64.53H242.366V65.91C242.366 67.13 242.666 68.06 243.266 68.7C243.886 69.34 244.776 69.66 245.936 69.66C246.876 69.66 247.636 69.5 248.216 69.18C248.796 68.84 249.156 68.35 249.296 67.71H252.506C252.266 69.11 251.546 70.23 250.346 71.07C249.146 71.89 247.666 72.3 245.906 72.3ZM249.446 62.58V61.56C249.446 60.36 249.146 59.43 248.546 58.77C247.946 58.11 247.066 57.78 245.906 57.78C244.766 57.78 243.886 58.11 243.266 58.77C242.666 59.43 242.366 60.37 242.366 61.59V62.34L249.686 62.31L249.446 62.58Z" fill="#4351AF"/>
<line y1="8.5" x2="163" y2="8.5" stroke="#4351AF" stroke-width="17"/>
<line y1="113.5" x2="163" y2="113.5" stroke="#4351AF" stroke-width="17"/>
<line x1="8.5" x2="8.5" y2="122" stroke="#4351AF" stroke-width="17"/>
<line x1="154.5" x2="154.5" y2="38" stroke="#4351AF" stroke-width="17"/>
<line x1="154.5" y1="84" x2="154.5" y2="122" stroke="#4351AF" stroke-width="17"/>
</svg>
